<svg width="553" height="681" viewBox="0 0 553 681" fill="none" xmlns="http://www.w3.org/2000/svg">
<circle cx="164" cy="365" r="77" fill="white"/>
<circle cx="396" cy="357" r="77" fill="white"/>
<path d="M257.573 11.6868C245.926 29.5643 229.132 50.4214 187.96 97.2821C146.787 144.414 132.702 162.291 121.596 183.419C109.678 205.631 105.073 220.258 105.073 236.781L104.802 251.408L97.2176 235.426C88.8206 218.091 74.4644 199.671 62.0043 191.004L54.1491 185.315L47.6482 198.317C38.1677 217.007 22.728 258.992 14.8727 285.809C-2.46306 346.755 -4.9009 428.016 8.91354 476.773C41.1472 591.351 142.453 673.425 259.74 680.197C398.697 688.594 522.215 592.706 548.489 455.645C553.636 429.37 554.178 374.925 549.573 343.775C539.821 276.328 512.193 202.922 474.541 144.143C455.851 114.889 429.577 79.9464 425.785 79.9464C424.159 79.9464 415.221 85.6346 406.011 92.6773C387.592 106.492 369.985 127.078 362.672 143.059L357.796 153.623L354.816 135.475C351.295 114.889 342.627 94.0317 329.896 75.3416C321.228 62.3397 271.93 2.47717 268.137 0.0393066C266.783 -0.502441 262.178 4.6441 257.573 11.6868ZM179.833 291.497C193.648 295.289 211.254 313.437 215.859 328.335C224.256 356.506 217.214 385.218 196.627 406.346C176.854 426.662 157.893 431.266 136.223 421.515C107.782 408.513 95.8633 374.383 106.969 337.274C110.219 326.71 114.824 319.397 125.659 308.562C144.078 289.872 158.164 285.538 179.833 291.497ZM410.887 295.018C433.369 306.666 446.913 329.961 448.809 359.486C449.892 378.176 449.35 381.968 442.579 395.511C433.64 413.931 420.638 423.411 401.677 425.578C390.571 426.932 385.967 425.849 373.506 419.348C322.041 393.074 319.874 311 369.985 292.309C381.633 287.975 399.51 289.059 410.887 295.018Z" fill="black"/>
</svg>
