<svg width="1368" height="310" viewBox="0 0 1368 310" fill="none" xmlns="http://www.w3.org/2000/svg">
<g clip-path="url(#clip0_981_22479)">
<g filter="url(#filter0_f_981_22479)">
<path d="M138 2.5C138 -59.0797 88.0797 -109 26.5 -109H6.50001C-55.0797 -109 -105 -59.0797 -105 2.5V2.5C-105 64.0797 -55.0797 114 6.5 114H26.5C88.0797 114 138 64.0797 138 2.5V2.5Z" fill="#C4DA62" fill-opacity="0.24"/>
</g>
<g filter="url(#filter1_f_981_22479)">
<path d="M435 95C435 24.3076 377.692 -33 307 -33H-24C-94.6924 -33 -152 24.3076 -152 95V95C-152 165.692 -94.6924 223 -24 223H307C377.692 223 435 165.692 435 95V95Z" fill="#F4FCCF" fill-opacity="0.33"/>
</g>
<g filter="url(#filter2_f_981_22479)">
<rect width="641" height="256" rx="128" transform="matrix(-1 0 0 1 820 -50)" fill="url(#paint0_linear_981_22479)" fill-opacity="0.6"/>
</g>
<g filter="url(#filter3_f_981_22479)">
<rect x="617" y="-48" width="641" height="256" rx="128" fill="url(#paint1_linear_981_22479)" fill-opacity="0.6"/>
</g>
<g filter="url(#filter4_f_981_22479)">
<rect width="587" height="256" rx="128" transform="matrix(-1 0 0 1 1492 -33)" fill="#F4FCCF" fill-opacity="0.33"/>
</g>
<g filter="url(#filter5_f_981_22479)">
<rect width="243" height="223" rx="111.5" transform="matrix(-1 0 0 1 1442 -109)" fill="#C4DA62" fill-opacity="0.24"/>
</g>
</g>
<defs>
<filter id="filter0_f_981_22479" x="-169" y="-173" width="371" height="351" filterUnits="userSpaceOnUse" color-interpolation-filters="sRGB">
<feFlood flood-opacity="0" result="BackgroundImageFix"/>
<feBlend mode="normal" in="SourceGraphic" in2="BackgroundImageFix" result="shape"/>
<feGaussianBlur stdDeviation="32" result="effect1_foregroundBlur_981_22479"/>
</filter>
<filter id="filter1_f_981_22479" x="-207" y="-88" width="697" height="366" filterUnits="userSpaceOnUse" color-interpolation-filters="sRGB">
<feFlood flood-opacity="0" result="BackgroundImageFix"/>
<feBlend mode="normal" in="SourceGraphic" in2="BackgroundImageFix" result="shape"/>
<feGaussianBlur stdDeviation="27.5" result="effect1_foregroundBlur_981_22479"/>
</filter>
<filter id="filter2_f_981_22479" x="115" y="-114" width="769" height="384" filterUnits="userSpaceOnUse" color-interpolation-filters="sRGB">
<feFlood flood-opacity="0" result="BackgroundImageFix"/>
<feBlend mode="normal" in="SourceGraphic" in2="BackgroundImageFix" result="shape"/>
<feGaussianBlur stdDeviation="32" result="effect1_foregroundBlur_981_22479"/>
</filter>
<filter id="filter3_f_981_22479" x="553" y="-112" width="769" height="384" filterUnits="userSpaceOnUse" color-interpolation-filters="sRGB">
<feFlood flood-opacity="0" result="BackgroundImageFix"/>
<feBlend mode="normal" in="SourceGraphic" in2="BackgroundImageFix" result="shape"/>
<feGaussianBlur stdDeviation="32" result="effect1_foregroundBlur_981_22479"/>
</filter>
<filter id="filter4_f_981_22479" x="850" y="-88" width="697" height="366" filterUnits="userSpaceOnUse" color-interpolation-filters="sRGB">
<feFlood flood-opacity="0" result="BackgroundImageFix"/>
<feBlend mode="normal" in="SourceGraphic" in2="BackgroundImageFix" result="shape"/>
<feGaussianBlur stdDeviation="27.5" result="effect1_foregroundBlur_981_22479"/>
</filter>
<filter id="filter5_f_981_22479" x="1135" y="-173" width="371" height="351" filterUnits="userSpaceOnUse" color-interpolation-filters="sRGB">
<feFlood flood-opacity="0" result="BackgroundImageFix"/>
<feBlend mode="normal" in="SourceGraphic" in2="BackgroundImageFix" result="shape"/>
<feGaussianBlur stdDeviation="32" result="effect1_foregroundBlur_981_22479"/>
</filter>
<linearGradient id="paint0_linear_981_22479" x1="0" y1="128" x2="641" y2="128" gradientUnits="userSpaceOnUse">
<stop offset="0.225962" stop-color="#FBFEEB" stop-opacity="0.16"/>
<stop offset="1" stop-color="#FBFEEB" stop-opacity="0.44"/>
</linearGradient>
<linearGradient id="paint1_linear_981_22479" x1="617" y1="80" x2="1258" y2="80" gradientUnits="userSpaceOnUse">
<stop offset="0.259615" stop-color="#FBFEEB" stop-opacity="0.16"/>
<stop offset="1" stop-color="#FBFEEB" stop-opacity="0.44"/>
</linearGradient>
<clipPath id="clip0_981_22479">
<rect width="1368" height="310" fill="white"/>
</clipPath>
</defs>
</svg>
