<svg width="213" height="213" viewBox="0 0 213 213" fill="none" xmlns="http://www.w3.org/2000/svg">
<path d="M127.87 24.8458L115.055 8.99192C110.652 3.54546 102.348 3.54546 97.9454 8.99192L85.1298 24.8458C82.8917 27.6145 79.2318 28.8037 75.7938 27.8793L56.107 22.5861C49.3438 20.7676 42.6259 25.6484 42.2654 32.6425L41.216 53.0015C41.0327 56.5569 38.7708 59.6702 35.446 60.9432L16.4078 68.2325C9.86742 70.7366 7.30142 78.634 11.1208 84.5042L22.2385 101.592C24.1801 104.576 24.1801 108.424 22.2385 111.408L11.1208 128.496C7.30142 134.366 9.86741 142.263 16.4078 144.768L35.446 152.057C38.7708 153.33 41.0327 156.443 41.216 159.999L42.2654 180.357C42.6259 187.352 49.3438 192.232 56.107 190.414L75.7937 185.121C79.2318 184.196 82.8917 185.385 85.1298 188.154L97.9454 204.008C102.348 209.455 110.652 209.455 115.055 204.008L127.87 188.154C130.108 185.385 133.768 184.196 137.206 185.121L156.893 190.414C163.656 192.232 170.374 187.352 170.735 180.357L171.784 159.999C171.967 156.443 174.229 153.33 177.554 152.057L196.592 144.768C203.133 142.263 205.699 134.366 201.879 128.496L190.762 111.408C188.82 108.424 188.82 104.576 190.761 101.592L201.879 84.5042C205.699 78.634 203.133 70.7366 196.592 68.2325L177.554 60.9432C174.229 59.6702 171.967 56.5569 171.784 53.0015L170.735 32.6426C170.374 25.6484 163.656 20.7676 156.893 22.5861L137.206 27.8793C133.768 28.8037 130.108 27.6145 127.87 24.8458Z" fill="#C17BF3" stroke="black" stroke-width="2"/>
<circle cx="131" cy="93" r="19" fill="white" stroke="black" stroke-width="2"/>
<circle cx="83" cy="93" r="19" fill="white" stroke="black" stroke-width="2"/>
<circle cx="122.5" cy="93.5" r="8.5" fill="#22211F"/>
<circle cx="74.5" cy="93.5" r="8.5" fill="#22211F"/>
</svg>
