<svg width="252" height="252" viewBox="0 0 252 252" fill="none" xmlns="http://www.w3.org/2000/svg">
<path d="M109.823 33.0625C104.16 28.9413 96.1394 31.0906 93.2965 37.491L85.585 54.8527C84.1398 58.1064 80.9124 60.2023 77.3522 60.1993L58.355 60.1833C51.3516 60.1774 46.126 66.6308 47.5882 73.4799L51.5543 92.0585C52.2975 95.5402 50.9185 99.1328 48.0365 101.223L32.6581 112.376C26.9887 116.488 26.5543 124.781 31.763 129.462L45.8919 142.161C48.5397 144.541 49.5358 148.258 48.4328 151.643L42.5471 169.706C40.3773 176.365 44.9 183.329 51.8657 184.055L70.7606 186.024C74.3016 186.393 77.2923 188.814 78.3896 192.201L84.2449 210.274C86.4034 216.936 94.1557 219.912 100.218 216.405L116.661 206.892C119.743 205.109 123.586 205.31 126.465 207.405L141.824 218.584C147.487 222.706 155.507 220.556 158.35 214.156L166.062 196.794C167.507 193.54 170.734 191.445 174.295 191.448L193.292 191.463C200.295 191.469 205.521 185.016 204.059 178.167L200.093 159.588C199.349 156.107 200.728 152.514 203.61 150.424L218.989 139.27C224.658 135.159 225.093 126.866 219.884 122.185L205.755 109.486C203.107 107.106 202.111 103.389 203.214 100.004L209.1 81.9411C211.27 75.2822 206.747 68.3182 199.781 67.5923L180.886 65.6232C177.345 65.2542 174.355 62.8325 173.257 59.4456L167.402 41.3732C165.243 34.7108 157.491 31.7352 151.429 35.2422L134.985 44.7553C131.904 46.5381 128.061 46.3368 125.182 44.2418L109.823 33.0625Z" fill="#FF603E" stroke="black" stroke-width="2"/>
<circle cx="145.279" cy="107.127" r="18.2926" transform="rotate(-15.0012 145.279 107.127)" fill="white" stroke="black" stroke-width="2"/>
<circle cx="100.556" cy="119.112" r="18.2926" transform="rotate(-15.0012 100.556 119.112)" fill="white" stroke="black" stroke-width="2"/>
<circle cx="137.485" cy="109.716" r="8.19936" transform="rotate(-15.0012 137.485 109.716)" fill="#22211F"/>
<circle cx="92.761" cy="121.7" r="8.19936" transform="rotate(-15.0012 92.761 121.7)" fill="#22211F"/>
</svg>
